<svg width="640" height="420" viewBox="0 0 640 420" fill="none" xmlns="http://www.w3.org/2000/svg">
  <rect width="640" height="420" rx="28" fill="#FFF8F1"/>
  <rect x="24" y="24" width="592" height="372" rx="24" fill="url(#bg)"/>
  <rect x="54" y="66" width="176" height="126" rx="22" fill="white" stroke="#E6D7C8"/>
  <rect x="232" y="144" width="176" height="126" rx="22" fill="white" stroke="#E6D7C8"/>
  <rect x="410" y="222" width="176" height="126" rx="22" fill="white" stroke="#E6D7C8"/>
  <path d="M212 129C244 129 238 207 320 207" stroke="#C65A19" stroke-width="10" stroke-linecap="round"/>
  <path d="M390 207C422 207 416 285 498 285" stroke="#C65A19" stroke-width="10" stroke-linecap="round"/>
  <circle cx="142" cy="112" r="28" fill="#FFF1E4"/>
  <circle cx="320" cy="191" r="28" fill="#E8F0FF"/>
  <circle cx="498" cy="269" r="28" fill="#FFF1E4"/>
  <path d="M130 112H154" stroke="#C65A19" stroke-width="8" stroke-linecap="round"/>
  <path d="M320 177V205" stroke="#0F5BD8" stroke-width="8" stroke-linecap="round"/>
  <path d="M306 191H334" stroke="#0F5BD8" stroke-width="8" stroke-linecap="round"/>
  <path d="M486 269L496 279L514 260" stroke="#C65A19" stroke-width="8" stroke-linecap="round" stroke-linejoin="round"/>
  <rect x="84" y="154" width="118" height="12" rx="6" fill="#EEDBC8"/>
  <rect x="84" y="172" width="90" height="12" rx="6" fill="#F6EBDD"/>
  <rect x="262" y="232" width="118" height="12" rx="6" fill="#DDE8FF"/>
  <rect x="262" y="250" width="90" height="12" rx="6" fill="#EDF3FF"/>
  <rect x="440" y="310" width="118" height="12" rx="6" fill="#EEDBC8"/>
  <rect x="440" y="328" width="90" height="12" rx="6" fill="#F6EBDD"/>
  <defs>
    <linearGradient id="bg" x1="54" y1="66" x2="604" y2="366" gradientUnits="userSpaceOnUse">
      <stop stop-color="#FFFDF9"/>
      <stop offset="1" stop-color="#FFF1E4"/>
    </linearGradient>
  </defs>
</svg>
